<mxfile host="65bd71144e" modified="2021-02-22T07:13:20.329Z" agent="5.0 (Windows NT 10.0; Win64; x64) AppleWebKit/537.36 (KHTML, like Gecko) Code/1.52.1 Chrome/83.0.4103.122 Electron/9.3.5 Safari/537.36" etag="fM5fsfPWpFGZgkXBwIpM" version="14.2.4" type="embed" pages="2">
    <diagram id="mUpYVrXcaHzCLr676IzK" name="第 2 页">
        <mxGraphModel dx="1066" dy="790" grid="1" gridSize="10" guides="1" tooltips="1" connect="1" arrows="1" fold="1" page="1" pageScale="1" pageWidth="827" pageHeight="1169" math="0" shadow="0">
            <root>
                <mxCell id="pmkSR6v0UuQ-67jsOixc-0"/>
                <mxCell id="pmkSR6v0UuQ-67jsOixc-1" parent="pmkSR6v0UuQ-67jsOixc-0"/>
                <mxCell id="0" value="hub" style="ellipse;whiteSpace=wrap;html=1;" vertex="1" parent="pmkSR6v0UuQ-67jsOixc-1">
                    <mxGeometry x="160" y="255" width="90" height="70" as="geometry"/>
                </mxCell>
                <mxCell id="1" value="auth master" style="ellipse;whiteSpace=wrap;html=1;" vertex="1" parent="pmkSR6v0UuQ-67jsOixc-1">
                    <mxGeometry x="300" y="242.5" width="110" height="90" as="geometry"/>
                </mxCell>
                <mxCell id="2" value="auth slave" style="ellipse;whiteSpace=wrap;html=1;" vertex="1" parent="pmkSR6v0UuQ-67jsOixc-1">
                    <mxGeometry x="380" y="202.5" width="70" height="60" as="geometry"/>
                </mxCell>
                <mxCell id="3" value="auth slave" style="ellipse;whiteSpace=wrap;html=1;" vertex="1" parent="pmkSR6v0UuQ-67jsOixc-1">
                    <mxGeometry x="410" y="262.5" width="70" height="60" as="geometry"/>
                </mxCell>
                <mxCell id="4" value="auth slave" style="ellipse;whiteSpace=wrap;html=1;" vertex="1" parent="pmkSR6v0UuQ-67jsOixc-1">
                    <mxGeometry x="370" y="322.5" width="70" height="60" as="geometry"/>
                </mxCell>
                <mxCell id="5" value="generatord" style="ellipse;whiteSpace=wrap;html=1;" vertex="1" parent="pmkSR6v0UuQ-67jsOixc-1">
                    <mxGeometry x="440" y="122.5" width="120" height="80" as="geometry"/>
                </mxCell>
                <mxCell id="7" value="redis master" style="ellipse;whiteSpace=wrap;html=1;" vertex="1" parent="pmkSR6v0UuQ-67jsOixc-1">
                    <mxGeometry x="520" y="237.5" width="110" height="90" as="geometry"/>
                </mxCell>
                <mxCell id="8" value="redis slave" style="ellipse;whiteSpace=wrap;html=1;" vertex="1" parent="pmkSR6v0UuQ-67jsOixc-1">
                    <mxGeometry x="600" y="197.5" width="70" height="60" as="geometry"/>
                </mxCell>
                <mxCell id="9" value="redis slave" style="ellipse;whiteSpace=wrap;html=1;" vertex="1" parent="pmkSR6v0UuQ-67jsOixc-1">
                    <mxGeometry x="630" y="257.5" width="70" height="60" as="geometry"/>
                </mxCell>
                <mxCell id="10" value="redis slave" style="ellipse;whiteSpace=wrap;html=1;" vertex="1" parent="pmkSR6v0UuQ-67jsOixc-1">
                    <mxGeometry x="590" y="317.5" width="70" height="60" as="geometry"/>
                </mxCell>
                <mxCell id="11" value="hub:保持客户端连接&amp;nbsp; 转发客户端消息到auth服务&lt;br&gt;auth：无状态验证服务， 注册账号 登陆验证&lt;br&gt;&lt;span style=&quot;text-align: center&quot;&gt;generatord：uuid 和 tocken 生成&lt;/span&gt;" style="text;html=1;strokeColor=none;fillColor=none;align=left;verticalAlign=top;whiteSpace=wrap;rounded=0;" vertex="1" parent="pmkSR6v0UuQ-67jsOixc-1">
                    <mxGeometry x="200" y="410" width="440" height="90" as="geometry"/>
                </mxCell>
            </root>
        </mxGraphModel>
    </diagram>
    <diagram id="k4Jd2P2Ac0SRAA9ePXXa" name="第 1 页">
        &#xa;
        <mxGraphModel dx="1066" dy="1959" grid="1" gridSize="10" guides="1" tooltips="1" connect="1" arrows="1" fold="1" page="1" pageScale="1" pageWidth="827" pageHeight="1169" math="0" shadow="0">
            &#xa;
            <root>
                &#xa;
                <mxCell id="0"/>
                &#xa;
                <mxCell id="1" parent="0"/>
                &#xa;
                <mxCell id="8" value="" style="points=[];aspect=fixed;html=1;align=center;shadow=0;dashed=0;image;image=img/lib/allied_telesis/switch/Industrial_Ethernet_IE200_POE.svg;" parent="1" vertex="1">
                    &#xa;
                    <mxGeometry x="220" y="-50" width="120.2" height="168.64" as="geometry"/>
                    &#xa;
                </mxCell>
                &#xa;
                <mxCell id="9" value="LOGIN" style="text;html=1;strokeColor=none;fillColor=none;align=center;verticalAlign=middle;whiteSpace=wrap;rounded=0;" parent="1" vertex="1">
                    &#xa;
                    <mxGeometry x="225.1" y="-80" width="110" height="30" as="geometry"/>
                    &#xa;
                </mxCell>
                &#xa;
                <mxCell id="10" value="" style="points=[];aspect=fixed;html=1;align=center;shadow=0;dashed=0;image;image=img/lib/allied_telesis/switch/Industrial_Ethernet_IE200_POE.svg;" parent="1" vertex="1">
                    &#xa;
                    <mxGeometry x="450" y="121.36000000000001" width="120.2" height="168.64" as="geometry"/>
                    &#xa;
                </mxCell>
                &#xa;
                <mxCell id="11" value="Gate" style="text;html=1;strokeColor=none;fillColor=none;align=center;verticalAlign=middle;whiteSpace=wrap;rounded=0;" parent="1" vertex="1">
                    &#xa;
                    <mxGeometry x="455.1" y="91.36000000000001" width="110" height="30" as="geometry"/>
                    &#xa;
                </mxCell>
                &#xa;
                <mxCell id="12" value="" style="points=[];aspect=fixed;html=1;align=center;shadow=0;dashed=0;image;image=img/lib/allied_telesis/switch/Industrial_Ethernet_IE200_POE.svg;" parent="1" vertex="1">
                    &#xa;
                    <mxGeometry x="444.9" y="340" width="120.2" height="168.64" as="geometry"/>
                    &#xa;
                </mxCell>
                &#xa;
                <mxCell id="13" value="Gate" style="text;html=1;strokeColor=none;fillColor=none;align=center;verticalAlign=middle;whiteSpace=wrap;rounded=0;" parent="1" vertex="1">
                    &#xa;
                    <mxGeometry x="450" y="310" width="110" height="30" as="geometry"/>
                    &#xa;
                </mxCell>
                &#xa;
                <mxCell id="16" value="" style="points=[];aspect=fixed;html=1;align=center;shadow=0;dashed=0;image;image=img/lib/allied_telesis/switch/Industrial_Ethernet_IE200_POE.svg;" parent="1" vertex="1">
                    &#xa;
                    <mxGeometry x="870" y="7.105427357601002e-15" width="120.2" height="168.64" as="geometry"/>
                    &#xa;
                </mxCell>
                &#xa;
                <mxCell id="17" value="Game" style="text;html=1;strokeColor=none;fillColor=none;align=center;verticalAlign=middle;whiteSpace=wrap;rounded=0;" parent="1" vertex="1">
                    &#xa;
                    <mxGeometry x="880.2" y="-29.99999999999998" width="110" height="30" as="geometry"/>
                    &#xa;
                </mxCell>
                &#xa;
                <mxCell id="18" value="" style="points=[];aspect=fixed;html=1;align=center;shadow=0;dashed=0;image;image=img/lib/allied_telesis/switch/Industrial_Ethernet_IE200_POE.svg;" parent="1" vertex="1">
                    &#xa;
                    <mxGeometry x="880" y="250.68" width="120.2" height="168.64" as="geometry"/>
                    &#xa;
                </mxCell>
                &#xa;
                <mxCell id="19" value="Game" style="text;html=1;strokeColor=none;fillColor=none;align=center;verticalAlign=middle;whiteSpace=wrap;rounded=0;" parent="1" vertex="1">
                    &#xa;
                    <mxGeometry x="890.2" y="230" width="110" height="30" as="geometry"/>
                    &#xa;
                </mxCell>
                &#xa;
                <mxCell id="20" value="" style="points=[];aspect=fixed;html=1;align=center;shadow=0;dashed=0;image;image=img/lib/allied_telesis/switch/Industrial_Ethernet_IE200_POE.svg;" parent="1" vertex="1">
                    &#xa;
                    <mxGeometry x="650" y="290" width="120.2" height="168.64" as="geometry"/>
                    &#xa;
                </mxCell>
                &#xa;
                <mxCell id="21" value="Center" style="text;html=1;strokeColor=none;fillColor=none;align=center;verticalAlign=middle;whiteSpace=wrap;rounded=0;" parent="1" vertex="1">
                    &#xa;
                    <mxGeometry x="650" y="458.64" width="110" height="30" as="geometry"/>
                    &#xa;
                </mxCell>
                &#xa;
                <mxCell id="22" value="" style="points=[];aspect=fixed;html=1;align=center;shadow=0;dashed=0;image;image=img/lib/allied_telesis/switch/Industrial_Ethernet_IE200_POE.svg;" parent="1" vertex="1">
                    &#xa;
                    <mxGeometry x="104.9" y="209.32" width="120.2" height="168.64" as="geometry"/>
                    &#xa;
                </mxCell>
                &#xa;
                <mxCell id="23" value="Client" style="text;html=1;strokeColor=none;fillColor=none;align=center;verticalAlign=middle;whiteSpace=wrap;rounded=0;" parent="1" vertex="1">
                    &#xa;
                    <mxGeometry x="110" y="179.32" width="110" height="30" as="geometry"/>
                    &#xa;
                </mxCell>
                &#xa;
                <mxCell id="24" value="" style="endArrow=classic;html=1;entryX=0;entryY=0.654;entryDx=0;entryDy=0;entryPerimeter=0;exitX=0.99;exitY=0.52;exitDx=0;exitDy=0;exitPerimeter=0;" parent="1" source="10" target="16" edge="1">
                    &#xa;
                    <mxGeometry width="50" height="50" relative="1" as="geometry">
                        &#xa;
                        <mxPoint x="540" y="280" as="sourcePoint"/>
                        &#xa;
                        <mxPoint x="590" y="230" as="targetPoint"/>
                        &#xa;
                    </mxGeometry>
                    &#xa;
                </mxCell>
                &#xa;
                <mxCell id="25" value="" style="endArrow=classic;html=1;" parent="1" source="22" target="10" edge="1">
                    &#xa;
                    <mxGeometry width="50" height="50" relative="1" as="geometry">
                        &#xa;
                        <mxPoint x="260" y="310" as="sourcePoint"/>
                        &#xa;
                        <mxPoint x="310" y="260" as="targetPoint"/>
                        &#xa;
                    </mxGeometry>
                    &#xa;
                </mxCell>
                &#xa;
                <mxCell id="26" value="" style="endArrow=classic;html=1;entryX=0.008;entryY=0.494;entryDx=0;entryDy=0;entryPerimeter=0;exitX=0.998;exitY=0.543;exitDx=0;exitDy=0;exitPerimeter=0;" parent="1" source="10" target="20" edge="1">
                    &#xa;
                    <mxGeometry width="50" height="50" relative="1" as="geometry">
                        &#xa;
                        <mxPoint x="578.998" y="219.05279999999993" as="sourcePoint"/>
                        &#xa;
                        <mxPoint x="760" y="130.9705600000002" as="targetPoint"/>
                        &#xa;
                    </mxGeometry>
                    &#xa;
                </mxCell>
                &#xa;
                <mxCell id="27" value="" style="endArrow=classic;html=1;exitX=0.99;exitY=0.567;exitDx=0;exitDy=0;exitPerimeter=0;" parent="1" source="10" target="18" edge="1">
                    &#xa;
                    <mxGeometry width="50" height="50" relative="1" as="geometry">
                        &#xa;
                        <mxPoint x="579.9595999999999" y="222.9315200000001" as="sourcePoint"/>
                        &#xa;
                        <mxPoint x="750.9616000000001" y="593.9881599999999" as="targetPoint"/>
                        &#xa;
                    </mxGeometry>
                    &#xa;
                </mxCell>
                &#xa;
                <mxCell id="28" value="agent" style="ellipse;whiteSpace=wrap;html=1;" parent="1" vertex="1">
                    &#xa;
                    <mxGeometry x="170" y="820" width="120" height="80" as="geometry"/>
                    &#xa;
                </mxCell>
                &#xa;
                <mxCell id="30" value="agent" style="ellipse;whiteSpace=wrap;html=1;" parent="1" vertex="1">
                    &#xa;
                    <mxGeometry x="290" y="830" width="120" height="80" as="geometry"/>
                    &#xa;
                </mxCell>
                &#xa;
                <mxCell id="31" value="agent" style="ellipse;whiteSpace=wrap;html=1;" parent="1" vertex="1">
                    &#xa;
                    <mxGeometry x="324.9" y="910" width="120" height="80" as="geometry"/>
                    &#xa;
                </mxCell>
                &#xa;
                <mxCell id="32" value="watchdog" style="ellipse;whiteSpace=wrap;html=1;" parent="1" vertex="1">
                    &#xa;
                    <mxGeometry x="120" y="910" width="200" height="110" as="geometry"/>
                    &#xa;
                </mxCell>
                &#xa;
                <mxCell id="34" value="redis slave" style="ellipse;whiteSpace=wrap;html=1;" parent="1" vertex="1">
                    &#xa;
                    <mxGeometry x="180.2" y="580" width="120" height="80" as="geometry"/>
                    &#xa;
                </mxCell>
                &#xa;
                <mxCell id="35" value="redis slave" style="ellipse;whiteSpace=wrap;html=1;" parent="1" vertex="1">
                    &#xa;
                    <mxGeometry x="300.2" y="590" width="120" height="80" as="geometry"/>
                    &#xa;
                </mxCell>
                &#xa;
                <mxCell id="36" value="redis slave" style="ellipse;whiteSpace=wrap;html=1;" parent="1" vertex="1">
                    &#xa;
                    <mxGeometry x="335.09999999999997" y="670" width="120" height="80" as="geometry"/>
                    &#xa;
                </mxCell>
                &#xa;
                <mxCell id="37" value="redis master" style="ellipse;whiteSpace=wrap;html=1;" parent="1" vertex="1">
                    &#xa;
                    <mxGeometry x="130.2" y="670" width="200" height="110" as="geometry"/>
                    &#xa;
                </mxCell>
                &#xa;
            </root>
            &#xa;
        </mxGraphModel>
        &#xa;
    </diagram>
</mxfile>